<svg xmlns="http://www.w3.org/2000/svg" viewBox="0 0 1200 675">
  <defs>
    <linearGradient id="bg" x1="0" y1="0" x2="1" y2="1">
      <stop offset="0%" stop-color="#0B0F12"/>
      <stop offset="100%" stop-color="#0F1418"/>
    </linearGradient>
    <radialGradient id="glow1" cx="85%" cy="15%" r="60%">
      <stop offset="0%" stop-color="#7C4DFF" stop-opacity="0.22"/>
      <stop offset="100%" stop-color="#7C4DFF" stop-opacity="0"/>
    </radialGradient>
    <radialGradient id="glow2" cx="10%" cy="90%" r="60%">
      <stop offset="0%" stop-color="#00E5FF" stop-opacity="0.18"/>
      <stop offset="100%" stop-color="#00E5FF" stop-opacity="0"/>
    </radialGradient>
  </defs>
  <rect width="1200" height="675" fill="url(#bg)"/>
  <rect width="1200" height="675" fill="url(#glow1)"/>
  <rect width="1200" height="675" fill="url(#glow2)"/>
  <g opacity="0.08" stroke="#E6EEF3">
    <defs>
      <pattern id="grid" width="40" height="40" patternUnits="userSpaceOnUse">
        <path d="M 40 0 L 0 0 0 40" fill="none" stroke-width="1"/>
      </pattern>
    </defs>
    <rect width="1200" height="675" fill="url(#grid)"/>
  </g>

  <!-- chart axes -->
  <g transform="translate(320,160)" stroke="#2A3944">
    <rect x="0" y="0" width="560" height="360" rx="18" fill="#121920"/>
    <path d="M60,320 L500,320"/>
    <path d="M60,60 L60,320"/>
  </g>

  <!-- training curves -->
  <g transform="translate(320,160)" fill="none" stroke-width="3">
    <path d="M60,300 C140,280 220,260 300,220 C380,180 460,140 500,120" stroke="#7C4DFF"/>
    <path d="M60,310 C140,300 220,290 300,260 C380,230 460,190 500,170" stroke="#00E5FF" opacity="0.9"/>
  </g>

  <!-- legend -->
  <g transform="translate(360,500)">
    <rect x="0" y="-24" width="240" height="40" rx="10" fill="#0F1418" stroke="#1E2A33"/>
    <circle cx="20" cy="-4" r="6" fill="#7C4DFF"/>
    <text x="36" y="0" fill="#E6EEF3" font-family="Inter, Segoe UI, Roboto, Arial" font-size="16">REINFORCE</text>
    <circle cx="140" cy="-4" r="6" fill="#00E5FF"/>
    <text x="156" y="0" fill="#E6EEF3" font-family="Inter, Segoe UI, Roboto, Arial" font-size="16">A2C</text>
  </g>

  <text x="600" y="610" fill="#E6EEF3" font-family="Inter, Segoe UI, Roboto, Arial" font-size="26" text-anchor="middle" opacity="0.9">
    RL — Policy Gradients
  </text>
</svg>

